<?xml version="1.0" encoding="UTF-8" standalone="no"?>
<!-- Created with Inkscape (http://www.inkscape.org/) -->

<svg
   width="100mm"
   height="100mm"
   viewBox="0 0 100 100"
   version="1.1"
   id="svg5"
   inkscape:version="1.1.2 (b8e25be8, 2022-02-05)"
   sodipodi:docname="Tertis2Round.svg"
   inkscape:export-filename="/Users/merlin/bitmap.png"
   inkscape:export-xdpi="260.10001"
   inkscape:export-ydpi="260.10001"
   xmlns:inkscape="http://www.inkscape.org/namespaces/inkscape"
   xmlns:sodipodi="http://sodipodi.sourceforge.net/DTD/sodipodi-0.dtd"
   xmlns:xlink="http://www.w3.org/1999/xlink"
   xmlns="http://www.w3.org/2000/svg"
   xmlns:svg="http://www.w3.org/2000/svg">
  <sodipodi:namedview
     id="namedview7"
     pagecolor="#505050"
     bordercolor="#eeeeee"
     borderopacity="1"
     inkscape:pageshadow="0"
     inkscape:pageopacity="0"
     inkscape:pagecheckerboard="0"
     inkscape:document-units="mm"
     showgrid="false"
     width="100mm"
     inkscape:zoom="1.4468942"
     inkscape:cx="19.697363"
     inkscape:cy="251.22777"
     inkscape:window-width="1728"
     inkscape:window-height="1057"
     inkscape:window-x="0"
     inkscape:window-y="32"
     inkscape:window-maximized="0"
     inkscape:current-layer="layer1" />
  <defs
     id="defs2">
    <g
       id="cone">
      <polygon
         transform="translate(0,-1) rotate(18)"
         points="0,0 0,1 .5,1"
         id="triangle" />
      <use
         id="use10"
         transform="scale(-1,1)"
         xlink:href="#triangle" />
    </g>
    <g
       fill="white"
       transform="translate(1235,1050) scale(300.3)"
       id="star">
      <use
         id="use13"
         xlink:href="#cone" />
      <use
         id="use15"
         transform="rotate(72)"
         xlink:href="#cone" />
      <use
         id="use17"
         transform="rotate(-72)"
         xlink:href="#cone" />
      <use
         id="use19"
         transform="rotate(144)"
         xlink:href="#cone" />
      <use
         id="use21"
         transform="rotate(-144)"
         xlink:href="#cone" />
    </g>
    <g
       id="even_star_row">
      <use
         xlink:href="#star"
         id="star 1 even row" />
      <use
         x="1235"
         xlink:href="#star"
         id="star 2 even row" />
      <use
         x="2470"
         xlink:href="#star"
         id="star 3 even row" />
      <use
         x="3705"
         xlink:href="#star"
         id="star 4 even row" />
      <use
         x="4940"
         xlink:href="#star"
         id="star 5 even row" />
    </g>
    <g
       id="odd_star_row">
      <use
         y="-525"
         x="617.5"
         xlink:href="#even_star_row"
         id="last 5 stars odd row" />
      <use
         y="-525"
         x="-617.5"
         xlink:href="#star"
         id="star 1 odd row" />
    </g>
  </defs>
  <g
     inkscape:label="Layer 1"
     inkscape:groupmode="layer"
     id="layer1">
    <path
       id="rect31"
       style="fill:#010101;fill-rule:evenodd;stroke-width:0.999999;fill-opacity:1"
       d="M 188.97656 0 A 188.97638 188.97638 0 0 0 0 188.97656 A 188.97638 188.97638 0 0 0 188.97656 377.95312 A 188.97638 188.97638 0 0 0 377.95312 188.97656 A 188.97638 188.97638 0 0 0 188.97656 0 z "
       transform="scale(0.26458333)" />
    <path
       id="path471"
       style="fill:#da131a;fill-opacity:1;stroke:none;stroke-width:0.999999px;stroke-linecap:butt;stroke-linejoin:miter;stroke-opacity:1"
       d="M 188.97656 0 A 188.97638 188.97638 0 0 0 0 188.97656 A 188.97638 188.97638 0 0 0 55.443359 322.50977 L 322.5918 55.361328 A 188.97638 188.97638 0 0 0 188.97656 0 z "
       transform="scale(0.26458333)" />
    <path
       style="fill:#ffef00;fill-opacity:1;stroke:#303030;stroke-width:0.456954;stroke-miterlimit:4;stroke-dasharray:none;stroke-opacity:1"
       d="m 54.502239,92.663567 c -0.840607,-0.09672 -1.057813,-0.676719 -0.912194,-2.435746 0.428898,-5.18105 0.770464,-9.03412 0.86592,-9.767788 0.06055,-0.46543 0.295083,-2.837731 0.521174,-5.271796 0.22608,-2.434049 0.506795,-4.521297 0.623821,-4.638311 0.142629,-0.142641 0.529948,-0.140174 1.175156,0.0075 0.529311,0.121128 1.009197,0.144511 1.066396,0.05197 0.05719,-0.09255 -0.453082,-1.103268 -1.133932,-2.246054 -0.680866,-1.142783 -1.93174,-3.267817 -2.779717,-4.722286 -0.847982,-1.454477 -1.755928,-2.977707 -2.01767,-3.384967 -0.261729,-0.407252 -1.690688,-2.817391 -3.175465,-5.355868 -1.86938,-3.196041 -2.6319,-4.683097 -2.479503,-4.83549 0.152403,-0.152402 0.795458,-0.143552 2.091038,0.02877 1.513223,0.201271 2.417049,0.493359 4.727033,1.527611 4.557479,2.040552 4.680832,2.120529 7.112153,4.611656 1.500952,1.53786 2.429571,2.330839 2.729518,2.330839 0.492561,0 1.366146,-0.578442 5.374217,-3.558563 1.436503,-1.068093 2.697282,-1.941988 2.801689,-1.941988 0.421398,0 0.395271,0.747024 -0.138147,3.949114 -1.305441,7.836488 -2.826277,11.6507 -6.06004,15.198168 l -1.485815,1.629943 0.124715,9.152693 c 0.114229,8.381964 0.09499,9.177321 -0.228304,9.445136 -0.272506,0.225737 -1.250224,0.292435 -4.286594,0.292435 -2.163457,0 -4.195425,-0.03015 -4.515449,-0.06695 z"
       id="path3625" />
    <rect
       style="fill:#d5f6ff;stroke:#303030;stroke-width:0.4;stroke-opacity:1;stroke-miterlimit:4;stroke-dasharray:none;stroke-linejoin:round"
       id="rect1550"
       width="80"
       height="20"
       x="27.759596"
       y="-6.8761387"
       transform="rotate(40.934152)" />
    <g
       id="g1542"
       transform="matrix(0.35277778,0,0,0.35277778,17.656872,5.4871989)"
       style="stroke:#303030;stroke-width:1.13386;stroke-miterlimit:4;stroke-dasharray:none;stroke-opacity:1">
      <g
         style="fill:#ffffff;stroke:#303030;stroke-width:21.0574;stroke-miterlimit:4;stroke-dasharray:none;stroke-opacity:1"
         id="white stripes"
         transform="matrix(0.05384615,0,0,0.05384615,-883.23302,-179.46608)" />
      <rect
         style="fill:#ffffff;fill-opacity:1;fill-rule:evenodd;stroke:#303030;stroke-width:1.13386;stroke-linecap:butt;stroke-linejoin:miter;stroke-miterlimit:4;stroke-dasharray:none;stroke-dashoffset:0;stroke-opacity:1"
         id="rect2221"
         width="0"
         height="32.476742"
         x="-331.12842"
         y="-150.89632" />
      <rect
         style="fill:#ffffff;fill-opacity:1;fill-rule:evenodd;stroke:#303030;stroke-width:1.13386;stroke-linecap:butt;stroke-linejoin:miter;stroke-miterlimit:4;stroke-dasharray:none;stroke-dashoffset:0;stroke-opacity:1"
         id="rect2223"
         width="0"
         height="15.465115"
         x="-311.02377"
         y="-161.72189" />
    </g>
    <path
       style="fill:#ffef00;fill-opacity:1;stroke:#303030;stroke-width:0.456954;stroke-miterlimit:4;stroke-dasharray:none;stroke-opacity:1"
       d="m 46.092802,33.430586 c -1.290676,-0.433431 -7.752624,-3.304649 -7.876865,-3.499906 -0.244665,-0.384522 -0.250524,-0.373706 1.462,-2.696299 0.893425,-1.211693 2.287924,-3.107495 3.098907,-4.212896 1.836482,-2.503213 2.450861,-3.173399 2.909153,-3.173399 0.422717,0 2.341318,1.37084 4.805277,3.433357 1.457911,1.220383 1.731751,1.545536 1.622375,1.926369 -0.171775,0.598131 -5.177723,8.13732 -5.475253,8.245983 -0.12553,0.04585 -0.371051,0.03538 -0.545594,-0.02321 z"
       id="path3635" />
    <path
       style="fill:#ffef00;fill-opacity:1;stroke:#303030;stroke-width:0.456954;stroke-miterlimit:4;stroke-dasharray:none;stroke-opacity:1"
       d="m 53.394627,40.075955 c 0.09313,-1.490458 0.07066,-2.551784 -0.05893,-2.783353 -0.115208,-0.205852 -1.292178,-0.906813 -2.615492,-1.557683 -1.4072,-0.692135 -2.432332,-1.3263 -2.469416,-1.527627 -0.061,-0.331196 4.850575,-7.955738 5.329675,-8.273601 0.726982,-0.482319 1.270681,-0.109529 4.533996,3.108817 l 3.316464,3.270731 -0.335218,0.599248 c -0.184368,0.329584 -1.517612,2.118425 -2.962776,3.975197 -1.445159,1.856776 -3.003725,3.875767 -3.463457,4.486643 -1.293435,1.718645 -1.453188,1.555934 -1.274848,-1.298372 z"
       id="path3633" />
    <path
       style="fill:#ffef00;fill-opacity:1;stroke:#303030;stroke-width:0.456954;stroke-miterlimit:4;stroke-dasharray:none;stroke-opacity:1"
       d="M 44.717667,47.534909 C 41.16073,46.19892 40.705722,45.9476 40.995422,45.479018 c 0.144611,-0.233881 0.395645,-0.239644 1.395698,-0.03204 1.329225,0.275948 2.527875,0.1822 5.394166,-0.421881 3.896479,-0.821202 4.187693,-0.759501 3.477644,0.736812 -0.45151,0.951483 -2.431172,3.074446 -2.850811,3.057148 -0.170215,-0.007 -1.832724,-0.584885 -3.694452,-1.284153 z"
       id="path3631" />
    <path
       style="fill:#ffef00;fill-opacity:1;stroke:#303030;stroke-width:0.456954;stroke-miterlimit:4;stroke-dasharray:none;stroke-opacity:1"
       d="m 53.822533,51.030683 c -1.624736,-0.754778 -3.000872,-1.419129 -3.058075,-1.476328 -0.29042,-0.290424 0.786257,-1.881992 5.58534,-8.25633 5.915267,-7.856884 6.063711,-8.034043 6.515773,-7.775404 0.681882,0.390092 6.075705,5.769713 6.075705,6.059669 0,0.472479 -0.225999,0.742208 -7.838862,9.355309 -1.234152,1.396295 -2.424091,2.752926 -2.644311,3.014732 -0.619665,0.736659 -1.399837,0.581545 -4.63557,-0.921648 z"
       id="path3629" />
    <path
       style="fill:#ffef00;fill-opacity:1;stroke:#303030;stroke-width:0.456954;stroke-miterlimit:4;stroke-dasharray:none;stroke-opacity:1"
       d="m 60.820933,55.477299 c -1.546319,-1.653559 -1.846246,-2.081223 -1.692474,-2.413403 0.102755,-0.222045 1.052577,-1.336504 2.1107,-2.476566 1.058118,-1.14007 2.326055,-2.538356 2.817592,-3.107311 0.491589,-0.568959 1.029086,-1.16976 1.194448,-1.335122 0.165366,-0.165358 1.261686,-1.382572 2.436274,-2.704915 1.174624,-1.322347 2.257902,-2.451181 2.407317,-2.508521 0.526446,-0.202016 5.404861,5.52158 5.404861,6.341255 0,0.293942 -0.67736,0.896935 -4.959577,4.415165 -1.841123,1.512651 -4.167875,3.439744 -5.170536,4.282422 -1.002644,0.842679 -2.013445,1.528663 -2.246162,1.524412 -0.255713,-0.0046 -1.166645,-0.802849 -2.302443,-2.017416 z"
       id="path3627" />
    <path
       style="fill:#ffef00;fill-opacity:1;stroke:#303030;stroke-width:0.456954;stroke-miterlimit:4;stroke-dasharray:none;stroke-opacity:1"
       d="m 39.154879,92.694397 c -1.799017,-0.06303 -2.417563,-0.157181 -2.503477,-0.381068 -0.127834,-0.333123 0.08415,-2.132156 0.873193,-7.410553 0.295691,-1.978086 0.725598,-4.976947 0.955328,-6.664133 0.229743,-1.687194 0.565661,-3.949767 0.746511,-5.027935 0.180843,-1.078176 0.261981,-2.077794 0.180304,-2.221382 C 39.002697,70.279 37.001766,67.288291 33.924169,62.794753 27.997026,54.140674 24.798489,49.38219 24.438996,48.683632 c -0.552173,-1.072982 -0.423843,-1.532242 0.978083,-3.50047 0.724901,-1.017709 1.7464,-2.473383 2.270009,-3.234843 2.62955,-3.823968 7.362611,-10.490501 7.758844,-10.928331 0.19031,-0.210289 0.513679,-0.382347 0.718611,-0.382347 0.338823,0 12.965624,5.488264 15.213934,6.61277 0.601437,0.300806 1.020292,0.679936 1.14431,1.035752 0.23069,0.661868 -0.221981,4.230023 -0.602675,4.750658 -0.290101,0.396737 -1.122467,0.569063 -5.047433,1.045024 -3.760497,0.456012 -4.221908,0.31508 -6.42973,-1.963879 -0.838446,-0.865457 -1.615184,-1.51748 -1.726069,-1.44894 -0.240045,0.148351 0.218947,2.041821 0.661361,2.728342 0.868704,1.348014 0.533824,1.976643 -1.203327,2.258861 -1.325407,0.215328 -1.827909,0.497748 -1.48594,0.835154 0.110538,0.109066 1.692794,0.761319 3.516128,1.449456 2.451919,0.925371 3.455549,1.410843 3.854282,1.864413 0.29652,0.337286 0.542145,0.670989 0.545819,0.741563 0.0037,0.07057 0.471938,0.927387 1.040572,1.904033 8.756207,15.039012 8.559068,14.679577 8.399895,15.313763 -0.08006,0.318949 -0.619439,0.850609 -1.402343,1.382266 -0.699732,0.475187 -1.212963,0.959897 -1.140486,1.07714 0.07245,0.117248 0.622277,0.183466 1.221821,0.147151 l 1.090081,-0.06603 -0.0516,2.009818 c -0.02841,1.105404 -0.291556,4.913485 -0.584817,8.462397 -0.873545,10.57139 -0.942894,11.281556 -1.131502,11.586726 -0.170948,0.276596 -8.404214,0.487547 -12.891943,0.330317 z"
       id="path5187" />
  </g>
</svg>
